<svg width="280" height="281" viewBox="0 0 280 281" fill="none" xmlns="http://www.w3.org/2000/svg">
<path fill-rule="evenodd" clip-rule="evenodd" d="M141 141V252C202.357 252 252.191 202.441 252.99 141H141Z" fill="#3399FF"/>
<path d="M141.354 0.646454C141.158 0.451172 140.842 0.451172 140.646 0.646454L137.464 3.82843C137.269 4.02368 137.269 4.34027 137.464 4.53552C137.66 4.7308 137.976 4.7308 138.172 4.53552L141 1.70709L143.828 4.53552C144.024 4.7308 144.34 4.7308 144.536 4.53552C144.731 4.34027 144.731 4.02368 144.536 3.82843L141.354 0.646454ZM141.5 281L141.5 1L140.5 1L140.5 281L141.5 281Z" fill="black"/>
<path d="M279.354 141.354C279.549 141.158 279.549 140.842 279.354 140.646L276.172 137.464C275.976 137.269 275.66 137.269 275.464 137.464C275.269 137.66 275.269 137.976 275.464 138.172L278.293 141L275.464 143.828C275.269 144.024 275.269 144.34 275.464 144.536C275.66 144.731 275.976 144.731 276.172 144.536L279.354 141.354ZM-4.37114e-08 141.5L279 141.5L279 140.5L4.37114e-08 140.5L-4.37114e-08 141.5Z" fill="black"/>
<path d="M140.5 27V140.5H85L140.5 27Z" fill="#3399FF"/>
<path d="M141.5 84H253V140.5H141.5V84Z" fill="#3399FF"/>
<line x1="138" y1="83.5" x2="144" y2="83.5" stroke="black"/>
<line x1="138" y1="196.5" x2="144" y2="196.5" stroke="black"/>
<line x1="138" y1="252.5" x2="144" y2="252.5" stroke="black"/>
<line x1="138" y1="26.5" x2="144" y2="26.5" stroke="black"/>
<line x1="84.5" y1="138" x2="84.5" y2="144" stroke="black"/>
<line x1="28.5" y1="138" x2="28.5" y2="144" stroke="black"/>
<line x1="253.5" y1="138" x2="253.5" y2="144" stroke="black"/>
<line x1="197.5" y1="138" x2="197.5" y2="144" stroke="black"/>
<path d="M147.057 32V23.2727H150.006C150.688 23.2727 151.247 23.3892 151.685 23.6222C152.122 23.8523 152.446 24.169 152.656 24.5724C152.866 24.9758 152.972 25.4347 152.972 25.9489C152.972 26.4631 152.866 26.919 152.656 27.3168C152.446 27.7145 152.124 28.027 151.689 28.2543C151.254 28.4787 150.699 28.5909 150.023 28.5909H147.636V27.6364H149.989C150.455 27.6364 150.83 27.5682 151.114 27.4318C151.401 27.2954 151.608 27.1023 151.736 26.8523C151.866 26.5994 151.932 26.2983 151.932 25.9489C151.932 25.5994 151.866 25.294 151.736 25.0327C151.605 24.7713 151.396 24.5696 151.109 24.4275C150.822 24.2827 150.443 24.2102 149.972 24.2102H148.114V32H147.057ZM151.165 28.0795L153.312 32H152.085L149.972 28.0795H151.165Z" fill="black"/>
<path d="M150.67 196.168V197.105H146.852V196.168H150.67ZM152.576 201V192.273H155.525C156.207 192.273 156.767 192.389 157.204 192.622C157.642 192.852 157.966 193.169 158.176 193.572C158.386 193.976 158.491 194.435 158.491 194.949C158.491 195.463 158.386 195.919 158.176 196.317C157.966 196.714 157.643 197.027 157.208 197.254C156.774 197.479 156.218 197.591 155.542 197.591H153.156V196.636H155.508C155.974 196.636 156.349 196.568 156.633 196.432C156.92 196.295 157.127 196.102 157.255 195.852C157.386 195.599 157.451 195.298 157.451 194.949C157.451 194.599 157.386 194.294 157.255 194.033C157.125 193.771 156.916 193.57 156.629 193.428C156.342 193.283 155.963 193.21 155.491 193.21H153.633V201H152.576ZM156.684 197.08L158.832 201H157.605L155.491 197.08H156.684ZM163.201 191.864L160.388 202.312H159.468L162.281 191.864H163.201ZM164.376 201V200.233L167.257 197.08C167.595 196.71 167.873 196.389 168.092 196.116C168.311 195.841 168.473 195.582 168.578 195.341C168.686 195.097 168.74 194.841 168.74 194.574C168.74 194.267 168.666 194.001 168.518 193.777C168.373 193.553 168.174 193.379 167.922 193.257C167.669 193.135 167.385 193.074 167.069 193.074C166.734 193.074 166.441 193.143 166.191 193.283C165.944 193.419 165.752 193.611 165.616 193.858C165.483 194.105 165.416 194.395 165.416 194.727H164.41C164.41 194.216 164.528 193.767 164.764 193.381C165 192.994 165.321 192.693 165.727 192.477C166.136 192.261 166.595 192.153 167.103 192.153C167.615 192.153 168.068 192.261 168.463 192.477C168.858 192.693 169.167 192.984 169.392 193.351C169.616 193.717 169.728 194.125 169.728 194.574C169.728 194.895 169.67 195.209 169.554 195.516C169.44 195.82 169.241 196.159 168.957 196.534C168.676 196.906 168.285 197.361 167.785 197.898L165.825 199.994V200.062H169.882V201H164.376Z" fill="black"/>
<path d="M150.67 252.168V253.105H146.852V252.168H150.67ZM152.576 257V248.273H155.525C156.207 248.273 156.767 248.389 157.204 248.622C157.642 248.852 157.966 249.169 158.176 249.572C158.386 249.976 158.491 250.435 158.491 250.949C158.491 251.463 158.386 251.919 158.176 252.317C157.966 252.714 157.643 253.027 157.208 253.254C156.774 253.479 156.218 253.591 155.542 253.591H153.156V252.636H155.508C155.974 252.636 156.349 252.568 156.633 252.432C156.92 252.295 157.127 252.102 157.255 251.852C157.386 251.599 157.451 251.298 157.451 250.949C157.451 250.599 157.386 250.294 157.255 250.033C157.125 249.771 156.916 249.57 156.629 249.428C156.342 249.283 155.963 249.21 155.491 249.21H153.633V257H152.576ZM156.684 253.08L158.832 257H157.605L155.491 253.08H156.684Z" fill="black"/>
<path d="M250.057 134V125.273H253.006C253.688 125.273 254.247 125.389 254.685 125.622C255.122 125.852 255.446 126.169 255.656 126.572C255.866 126.976 255.972 127.435 255.972 127.949C255.972 128.463 255.866 128.919 255.656 129.317C255.446 129.714 255.124 130.027 254.689 130.254C254.254 130.479 253.699 130.591 253.023 130.591H250.636V129.636H252.989C253.455 129.636 253.83 129.568 254.114 129.432C254.401 129.295 254.608 129.102 254.736 128.852C254.866 128.599 254.932 128.298 254.932 127.949C254.932 127.599 254.866 127.294 254.736 127.033C254.605 126.771 254.396 126.57 254.109 126.428C253.822 126.283 253.443 126.21 252.972 126.21H251.114V134H250.057ZM254.165 130.08L256.312 134H255.085L252.972 130.08H254.165Z" fill="black"/>
<path d="M189.057 134V125.273H192.006C192.688 125.273 193.247 125.389 193.685 125.622C194.122 125.852 194.446 126.169 194.656 126.572C194.866 126.976 194.972 127.435 194.972 127.949C194.972 128.463 194.866 128.919 194.656 129.317C194.446 129.714 194.124 130.027 193.689 130.254C193.254 130.479 192.699 130.591 192.023 130.591H189.636V129.636H191.989C192.455 129.636 192.83 129.568 193.114 129.432C193.401 129.295 193.608 129.102 193.736 128.852C193.866 128.599 193.932 128.298 193.932 127.949C193.932 127.599 193.866 127.294 193.736 127.033C193.605 126.771 193.396 126.57 193.109 126.428C192.822 126.283 192.443 126.21 191.972 126.21H190.114V134H189.057ZM193.165 130.08L195.312 134H194.085L191.972 130.08H193.165ZM199.681 124.864L196.869 135.312H195.949L198.761 124.864H199.681ZM200.857 134V133.233L203.737 130.08C204.075 129.71 204.354 129.389 204.572 129.116C204.791 128.841 204.953 128.582 205.058 128.341C205.166 128.097 205.22 127.841 205.22 127.574C205.22 127.267 205.146 127.001 204.999 126.777C204.854 126.553 204.655 126.379 204.402 126.257C204.149 126.135 203.865 126.074 203.55 126.074C203.214 126.074 202.922 126.143 202.672 126.283C202.425 126.419 202.233 126.611 202.097 126.858C201.963 127.105 201.896 127.395 201.896 127.727H200.891C200.891 127.216 201.009 126.767 201.244 126.381C201.48 125.994 201.801 125.693 202.207 125.477C202.616 125.261 203.075 125.153 203.584 125.153C204.095 125.153 204.548 125.261 204.943 125.477C205.338 125.693 205.648 125.984 205.872 126.351C206.097 126.717 206.209 127.125 206.209 127.574C206.209 127.895 206.151 128.209 206.034 128.516C205.92 128.82 205.722 129.159 205.438 129.534C205.156 129.906 204.766 130.361 204.266 130.898L202.305 132.994V133.062H206.362V134H200.857Z" fill="black"/>
<path d="M78.6705 129.168V130.105H74.8523V129.168H78.6705ZM80.5763 134V125.273H83.5252C84.207 125.273 84.7667 125.389 85.2042 125.622C85.6417 125.852 85.9656 126.169 86.1758 126.572C86.386 126.976 86.4911 127.435 86.4911 127.949C86.4911 128.463 86.386 128.919 86.1758 129.317C85.9656 129.714 85.6431 130.027 85.2085 130.254C84.7738 130.479 84.2184 130.591 83.5423 130.591H81.1559V129.636H83.5082C83.9741 129.636 84.3491 129.568 84.6332 129.432C84.9201 129.295 85.1275 129.102 85.2553 128.852C85.386 128.599 85.4513 128.298 85.4513 127.949C85.4513 127.599 85.386 127.294 85.2553 127.033C85.1246 126.771 84.9158 126.57 84.6289 126.428C84.342 126.283 83.9627 126.21 83.4911 126.21H81.6332V134H80.5763ZM84.6843 130.08L86.832 134H85.6048L83.4911 130.08H84.6843ZM91.201 124.864L88.3885 135.312H87.468L90.2805 124.864H91.201ZM92.3761 134V133.233L95.2567 130.08C95.5948 129.71 95.8732 129.389 96.092 129.116C96.3107 128.841 96.4727 128.582 96.5778 128.341C96.6857 128.097 96.7397 127.841 96.7397 127.574C96.7397 127.267 96.6658 127.001 96.5181 126.777C96.3732 126.553 96.1744 126.379 95.9215 126.257C95.6687 126.135 95.3846 126.074 95.0692 126.074C94.734 126.074 94.4414 126.143 94.1914 126.283C93.9442 126.419 93.7525 126.611 93.6161 126.858C93.4826 127.105 93.4158 127.395 93.4158 127.727H92.4102C92.4102 127.216 92.5281 126.767 92.7638 126.381C92.9996 125.994 93.3207 125.693 93.7269 125.477C94.136 125.261 94.5948 125.153 95.1033 125.153C95.6147 125.153 96.0678 125.261 96.4627 125.477C96.8576 125.693 97.1673 125.984 97.3917 126.351C97.6161 126.717 97.7283 127.125 97.7283 127.574C97.7283 127.895 97.6701 128.209 97.5536 128.516C97.44 128.82 97.2411 129.159 96.957 129.534C96.6758 129.906 96.2852 130.361 95.7852 130.898L93.8249 132.994V133.062H97.8817V134H92.3761Z" fill="black"/>
<path d="M28.6705 129.168V130.105H24.8523V129.168H28.6705ZM30.5763 134V125.273H33.5252C34.207 125.273 34.7667 125.389 35.2042 125.622C35.6417 125.852 35.9656 126.169 36.1758 126.572C36.386 126.976 36.4911 127.435 36.4911 127.949C36.4911 128.463 36.386 128.919 36.1758 129.317C35.9656 129.714 35.6431 130.027 35.2085 130.254C34.7738 130.479 34.2184 130.591 33.5423 130.591H31.1559V129.636H33.5082C33.9741 129.636 34.3491 129.568 34.6332 129.432C34.9201 129.295 35.1275 129.102 35.2553 128.852C35.386 128.599 35.4513 128.298 35.4513 127.949C35.4513 127.599 35.386 127.294 35.2553 127.033C35.1246 126.771 34.9158 126.57 34.6289 126.428C34.342 126.283 33.9627 126.21 33.4911 126.21H31.6332V134H30.5763ZM34.6843 130.08L36.832 134H35.6048L33.4911 130.08H34.6843Z" fill="black"/>
<path d="M147.057 89V80.2727H150.006C150.688 80.2727 151.247 80.3892 151.685 80.6222C152.122 80.8523 152.446 81.169 152.656 81.5724C152.866 81.9758 152.972 82.4347 152.972 82.9489C152.972 83.4631 152.866 83.919 152.656 84.3168C152.446 84.7145 152.124 85.027 151.689 85.2543C151.254 85.4787 150.699 85.5909 150.023 85.5909H147.636V84.6364H149.989C150.455 84.6364 150.83 84.5682 151.114 84.4318C151.401 84.2954 151.608 84.1023 151.736 83.8523C151.866 83.5994 151.932 83.2983 151.932 82.9489C151.932 82.5994 151.866 82.294 151.736 82.0327C151.605 81.7713 151.396 81.5696 151.109 81.4275C150.822 81.2827 150.443 81.2102 149.972 81.2102H148.114V89H147.057ZM151.165 85.0795L153.312 89H152.085L149.972 85.0795H151.165ZM157.681 79.8636L154.869 90.3125H153.949L156.761 79.8636H157.681ZM158.857 89V88.2329L161.737 85.0795C162.075 84.7102 162.354 84.3892 162.572 84.1165C162.791 83.8409 162.953 83.5824 163.058 83.3409C163.166 83.0966 163.22 82.8409 163.22 82.5739C163.22 82.267 163.146 82.0014 162.999 81.777C162.854 81.5525 162.655 81.3793 162.402 81.2571C162.149 81.1349 161.865 81.0739 161.55 81.0739C161.214 81.0739 160.922 81.1435 160.672 81.2827C160.425 81.419 160.233 81.6108 160.097 81.8579C159.963 82.1051 159.896 82.3949 159.896 82.7273H158.891C158.891 82.2159 159.009 81.767 159.244 81.3807C159.48 80.9943 159.801 80.6932 160.207 80.4773C160.616 80.2614 161.075 80.1534 161.584 80.1534C162.095 80.1534 162.548 80.2614 162.943 80.4773C163.338 80.6932 163.648 80.9844 163.872 81.3508C164.097 81.7173 164.209 82.125 164.209 82.5739C164.209 82.8949 164.151 83.2088 164.034 83.5156C163.92 83.8196 163.722 84.1591 163.438 84.5341C163.156 84.9062 162.766 85.3608 162.266 85.8977L160.305 87.9943V88.0625H164.362V89H158.857Z" fill="black"/>
</svg>
