<svg width="350" height="350" viewBox="0 0 350 350" fill="none" xmlns="http://www.w3.org/2000/svg">
<g clip-path="url(#clip0_1_2)">
<line x1="175.5" y1="2.18557e-08" x2="175.5" y2="350" stroke="black"/>
<line y1="174.5" x2="352" y2="174.5" stroke="black"/>
<line x1="173" y1="233.5" x2="178" y2="233.5" stroke="black"/>
<line x1="173" y1="292.5" x2="178" y2="292.5" stroke="black"/>
<line x1="173" y1="115.5" x2="178" y2="115.5" stroke="black"/>
<line x1="173" y1="56.5" x2="178" y2="56.5" stroke="black"/>
<line x1="234.5" y1="172" x2="234.5" y2="177" stroke="black"/>
<line x1="293.5" y1="172" x2="293.5" y2="177" stroke="black"/>
<line x1="116.5" y1="172" x2="116.5" y2="177" stroke="black"/>
<line x1="57.5" y1="172" x2="57.5" y2="177" stroke="black"/>
<line x1="170.385" y1="5.40778" x2="175.335" y2="0.458037" stroke="black"/>
<line x1="180.646" y1="5.35355" x2="175.697" y2="0.403806" stroke="black"/>
<line x1="350.596" y1="175.303" x2="345.646" y2="170.354" stroke="black"/>
<line x1="350.303" y1="174.354" x2="345.354" y2="179.303" stroke="black"/>
<path d="M157.793 120V113.455H160.004C160.516 113.455 160.935 113.542 161.263 113.717C161.592 113.889 161.835 114.127 161.992 114.429C162.15 114.732 162.229 115.076 162.229 115.462C162.229 115.847 162.15 116.189 161.992 116.488C161.835 116.786 161.593 117.02 161.267 117.191C160.941 117.359 160.524 117.443 160.017 117.443H158.227V116.727H159.991C160.341 116.727 160.622 116.676 160.835 116.574C161.05 116.472 161.206 116.327 161.302 116.139C161.4 115.95 161.449 115.724 161.449 115.462C161.449 115.2 161.4 114.971 161.302 114.775C161.204 114.578 161.047 114.427 160.832 114.321C160.617 114.212 160.332 114.158 159.979 114.158H158.585V120H157.793ZM160.874 117.06L162.484 120H161.564L159.979 117.06H160.874ZM165.761 113.148L163.652 120.984H162.961L165.071 113.148H165.761ZM166.642 120V119.425L168.803 117.06C169.056 116.783 169.265 116.542 169.429 116.337C169.593 116.131 169.715 115.937 169.794 115.756C169.875 115.572 169.915 115.381 169.915 115.18C169.915 114.95 169.86 114.751 169.749 114.583C169.64 114.414 169.491 114.284 169.301 114.193C169.112 114.101 168.899 114.055 168.662 114.055C168.411 114.055 168.191 114.108 168.004 114.212C167.819 114.314 167.675 114.458 167.572 114.643C167.472 114.829 167.422 115.046 167.422 115.295H166.668C166.668 114.912 166.756 114.575 166.933 114.286C167.11 113.996 167.351 113.77 167.656 113.608C167.962 113.446 168.306 113.365 168.688 113.365C169.071 113.365 169.411 113.446 169.707 113.608C170.004 113.77 170.236 113.988 170.404 114.263C170.572 114.538 170.657 114.844 170.657 115.18C170.657 115.421 170.613 115.657 170.526 115.887C170.44 116.115 170.291 116.369 170.078 116.651C169.867 116.93 169.574 117.271 169.199 117.673L167.729 119.246V119.297H170.772V120H166.642Z" fill="black"/>
<path d="M226.793 188V181.455H229.004C229.516 181.455 229.935 181.542 230.263 181.717C230.592 181.889 230.835 182.127 230.992 182.429C231.15 182.732 231.229 183.076 231.229 183.462C231.229 183.847 231.15 184.189 230.992 184.488C230.835 184.786 230.593 185.02 230.267 185.191C229.941 185.359 229.524 185.443 229.017 185.443H227.227V184.727H228.991C229.341 184.727 229.622 184.676 229.835 184.574C230.05 184.472 230.206 184.327 230.302 184.139C230.4 183.95 230.449 183.724 230.449 183.462C230.449 183.2 230.4 182.971 230.302 182.775C230.204 182.578 230.047 182.427 229.832 182.321C229.617 182.212 229.332 182.158 228.979 182.158H227.585V188H226.793ZM229.874 185.06L231.484 188H230.564L228.979 185.06H229.874ZM234.761 181.148L232.652 188.984H231.961L234.071 181.148H234.761ZM235.642 188V187.425L237.803 185.06C238.056 184.783 238.265 184.542 238.429 184.337C238.593 184.131 238.715 183.937 238.794 183.756C238.875 183.572 238.915 183.381 238.915 183.18C238.915 182.95 238.86 182.751 238.749 182.583C238.64 182.414 238.491 182.284 238.301 182.193C238.112 182.101 237.899 182.055 237.662 182.055C237.411 182.055 237.191 182.108 237.004 182.212C236.819 182.314 236.675 182.458 236.572 182.643C236.472 182.829 236.422 183.046 236.422 183.295H235.668C235.668 182.912 235.756 182.575 235.933 182.286C236.11 181.996 236.351 181.77 236.656 181.608C236.962 181.446 237.306 181.365 237.688 181.365C238.071 181.365 238.411 181.446 238.707 181.608C239.004 181.77 239.236 181.988 239.404 182.263C239.572 182.538 239.657 182.844 239.657 183.18C239.657 183.421 239.613 183.657 239.526 183.887C239.44 184.115 239.291 184.369 239.078 184.651C238.867 184.93 238.574 185.271 238.199 185.673L236.729 187.246V187.297H239.772V188H235.642Z" fill="black"/>
<path d="M114.503 184.376V185.079H111.639V184.376H114.503ZM115.932 188V181.455H118.144C118.655 181.455 119.075 181.542 119.403 181.717C119.731 181.889 119.974 182.127 120.132 182.429C120.29 182.732 120.368 183.076 120.368 183.462C120.368 183.847 120.29 184.189 120.132 184.488C119.974 184.786 119.732 185.02 119.406 185.191C119.08 185.359 118.664 185.443 118.157 185.443H116.367V184.727H118.131C118.481 184.727 118.762 184.676 118.975 184.574C119.19 184.472 119.346 184.327 119.441 184.139C119.54 183.95 119.589 183.724 119.589 183.462C119.589 183.2 119.54 182.971 119.441 182.775C119.343 182.578 119.187 182.427 118.972 182.321C118.756 182.212 118.472 182.158 118.118 182.158H116.725V188H115.932ZM119.013 185.06L120.624 188H119.704L118.118 185.06H119.013ZM123.901 181.148L121.791 188.984H121.101L123.21 181.148H123.901ZM124.782 188V187.425L126.943 185.06C127.196 184.783 127.405 184.542 127.569 184.337C127.733 184.131 127.854 183.937 127.933 183.756C128.014 183.572 128.055 183.381 128.055 183.18C128.055 182.95 127.999 182.751 127.889 182.583C127.78 182.414 127.631 182.284 127.441 182.193C127.252 182.101 127.038 182.055 126.802 182.055C126.551 182.055 126.331 182.108 126.144 182.212C125.958 182.314 125.814 182.458 125.712 182.643C125.612 182.829 125.562 183.046 125.562 183.295H124.808C124.808 182.912 124.896 182.575 125.073 182.286C125.25 181.996 125.491 181.77 125.795 181.608C126.102 181.446 126.446 181.365 126.828 181.365C127.211 181.365 127.551 181.446 127.847 181.608C128.143 181.77 128.375 181.988 128.544 182.263C128.712 182.538 128.796 182.844 128.796 183.18C128.796 183.421 128.753 183.657 128.665 183.887C128.58 184.115 128.431 184.369 128.218 184.651C128.007 184.93 127.714 185.271 127.339 185.673L125.869 187.246V187.297H128.911V188H124.782Z" fill="black"/>
<path d="M156.503 233.376V234.079H153.639V233.376H156.503ZM157.932 237V230.455H160.144C160.655 230.455 161.075 230.542 161.403 230.717C161.731 230.889 161.974 231.127 162.132 231.429C162.29 231.732 162.368 232.076 162.368 232.462C162.368 232.847 162.29 233.189 162.132 233.488C161.974 233.786 161.732 234.02 161.406 234.191C161.08 234.359 160.664 234.443 160.157 234.443H158.367V233.727H160.131C160.481 233.727 160.762 233.676 160.975 233.574C161.19 233.472 161.346 233.327 161.441 233.139C161.54 232.95 161.589 232.724 161.589 232.462C161.589 232.2 161.54 231.971 161.441 231.775C161.343 231.578 161.187 231.427 160.972 231.321C160.756 231.212 160.472 231.158 160.118 231.158H158.725V237H157.932ZM161.013 234.06L162.624 237H161.704L160.118 234.06H161.013ZM165.901 230.148L163.791 237.984H163.101L165.21 230.148H165.901ZM166.782 237V236.425L168.943 234.06C169.196 233.783 169.405 233.542 169.569 233.337C169.733 233.131 169.854 232.937 169.933 232.756C170.014 232.572 170.055 232.381 170.055 232.18C170.055 231.95 169.999 231.751 169.889 231.583C169.78 231.414 169.631 231.284 169.441 231.193C169.252 231.101 169.038 231.055 168.802 231.055C168.551 231.055 168.331 231.108 168.144 231.212C167.958 231.314 167.814 231.458 167.712 231.643C167.612 231.829 167.562 232.046 167.562 232.295H166.808C166.808 231.912 166.896 231.575 167.073 231.286C167.25 230.996 167.491 230.77 167.795 230.608C168.102 230.446 168.446 230.365 168.828 230.365C169.211 230.365 169.551 230.446 169.847 230.608C170.143 230.77 170.375 230.988 170.544 231.263C170.712 231.538 170.796 231.844 170.796 232.18C170.796 232.421 170.753 232.657 170.665 232.887C170.58 233.115 170.431 233.369 170.218 233.651C170.007 233.93 169.714 234.271 169.339 234.673L167.869 236.246V236.297H170.911V237H166.782Z" fill="black"/>
<path d="M290.793 188V181.455H293.004C293.516 181.455 293.935 181.542 294.263 181.717C294.592 181.889 294.835 182.127 294.992 182.429C295.15 182.732 295.229 183.076 295.229 183.462C295.229 183.847 295.15 184.189 294.992 184.488C294.835 184.786 294.593 185.02 294.267 185.191C293.941 185.359 293.524 185.443 293.017 185.443H291.227V184.727H292.991C293.341 184.727 293.622 184.676 293.835 184.574C294.05 184.472 294.206 184.327 294.302 184.139C294.4 183.95 294.449 183.724 294.449 183.462C294.449 183.2 294.4 182.971 294.302 182.775C294.204 182.578 294.047 182.427 293.832 182.321C293.617 182.212 293.332 182.158 292.979 182.158H291.585V188H290.793ZM293.874 185.06L295.484 188H294.564L292.979 185.06H293.874Z" fill="black"/>
<path d="M58.5028 184.376V185.079H55.6392V184.376H58.5028ZM59.9323 188V181.455H62.1439C62.6553 181.455 63.075 181.542 63.4031 181.717C63.7313 181.889 63.9742 182.127 64.1318 182.429C64.2895 182.732 64.3683 183.076 64.3683 183.462C64.3683 183.847 64.2895 184.189 64.1318 184.488C63.9742 184.786 63.7323 185.02 63.4063 185.191C63.0803 185.359 62.6638 185.443 62.1567 185.443H60.3669V184.727H62.1311C62.4806 184.727 62.7618 184.676 62.9749 184.574C63.1901 184.472 63.3456 184.327 63.4415 184.139C63.5395 183.95 63.5885 183.724 63.5885 183.462C63.5885 183.2 63.5395 182.971 63.4415 182.775C63.3435 182.578 63.1869 182.427 62.9717 182.321C62.7565 182.212 62.472 182.158 62.1183 182.158H60.7249V188H59.9323ZM63.0132 185.06L64.624 188H63.7036L62.1183 185.06H63.0132Z" fill="black"/>
<path d="M160.503 293.376V294.079H157.639V293.376H160.503ZM161.932 297V290.455H164.144C164.655 290.455 165.075 290.542 165.403 290.717C165.731 290.889 165.974 291.127 166.132 291.429C166.29 291.732 166.368 292.076 166.368 292.462C166.368 292.847 166.29 293.189 166.132 293.488C165.974 293.786 165.732 294.02 165.406 294.191C165.08 294.359 164.664 294.443 164.157 294.443H162.367V293.727H164.131C164.481 293.727 164.762 293.676 164.975 293.574C165.19 293.472 165.346 293.327 165.441 293.139C165.54 292.95 165.589 292.724 165.589 292.462C165.589 292.2 165.54 291.971 165.441 291.775C165.343 291.578 165.187 291.427 164.972 291.321C164.756 291.212 164.472 291.158 164.118 291.158H162.725V297H161.932ZM165.013 294.06L166.624 297H165.704L164.118 294.06H165.013Z" fill="black"/>
<path d="M162.23 5.45455H163.138L164.953 8.50994H165.03L166.845 5.45455H167.753L165.388 9.30256V12H164.595V9.30256L162.23 5.45455Z" fill="black"/>
<path d="M340.176 181.455L341.864 184.178H341.915L343.602 181.455H344.536L342.477 184.727L344.536 188H343.602L341.915 185.328H341.864L340.176 188H339.243L341.352 184.727L339.243 181.455H340.176Z" fill="black"/>
<path fill-rule="evenodd" clip-rule="evenodd" d="M82.5058 101.042C64.8801 125.522 59 154.913 59 174.5H58C58 154.753 63.9199 125.144 81.6942 100.458C99.4242 75.8328 128.928 56.1392 176 56.0007V56H176.5H234H235V175H234V57H176.5C129.463 57 100.113 76.5876 82.5058 101.042ZM177 234L295 175L294.553 174.106L176.553 233.106L177 234Z" fill="#BF80FF"/>
<path d="M162.793 60V53.4545H165.004C165.516 53.4545 165.935 53.5419 166.263 53.7166C166.592 53.8892 166.835 54.1268 166.992 54.4293C167.15 54.7319 167.229 55.076 167.229 55.4616C167.229 55.8473 167.15 56.1893 166.992 56.4876C166.835 56.7859 166.593 57.0202 166.267 57.1907C165.941 57.359 165.524 57.4432 165.017 57.4432H163.227V56.7273H164.991C165.341 56.7273 165.622 56.6761 165.835 56.5739C166.05 56.4716 166.206 56.3267 166.302 56.1392C166.4 55.9496 166.449 55.7237 166.449 55.4616C166.449 55.1996 166.4 54.9705 166.302 54.7745C166.204 54.5785 166.047 54.4272 165.832 54.3207C165.617 54.212 165.332 54.1577 164.979 54.1577H163.585V60H162.793ZM165.874 57.0597L167.484 60H166.564L164.979 57.0597H165.874Z" fill="black"/>
</g>
<defs>
<clipPath id="clip0_1_2">
<rect width="350" height="350" fill="white"/>
</clipPath>
</defs>
</svg>
